<svg width="24" height="24" xmlns="http://www.w3.org/2000/svg">

 <g>
  <title>background</title>
  <rect fill="none" id="canvas_background" height="402" width="582" y="-1" x="-1"/>
 </g>
 <g>
  <title>Layer 1</title>
  <g id="surface1">
   <path id="svg_1" fill-rule="nonzero" fill="rgb(29.803922%,68.627451%,31.372549%)" d="m9.64453,3.44141c-2.09765,-2.09766 -6.19922,-2.33985 -9.10156,-2.33985c-0.30078,0 -0.54297,0.2461 -0.54297,0.54688c0,2.90234 0.24219,7.0039 2.33594,9.09765c0.98437,0.875 2.26953,1.33594 3.58594,1.28125c1.35937,0.05469 2.68359,-0.40234 3.72265,-1.28125c1.5625,-1.5625 1.84766,-5.45703 0,-7.30468zm0,0"/>
   <path id="svg_2" fill-rule="nonzero" fill="rgb(29.803922%,68.627451%,31.372549%)" d="m23.44531,3.25781c-2.90234,0 -7.0039,0.24219 -9.10156,2.33594c-1.85156,1.85156 -1.55859,5.74609 0,7.30859c1.03906,0.875 2.36719,1.33204 3.72266,1.27735c1.3164,0.05469 2.60156,-0.40235 3.58593,-1.27735c2.09766,-2.09765 2.33594,-6.19921 2.33594,-9.10156c0,-0.30078 -0.24219,-0.54297 -0.54297,-0.54297zm0,0"/>
   <path id="svg_3" fill-rule="nonzero" fill="rgb(21.960784%,55.686275%,23.529412%)" d="m11.4375,22.89063c-0.30078,0 -0.54297,-0.2461 -0.54297,-0.54688c0,-11.55078 -4.23828,-14.44922 -5.83203,-15.54297c-0.19141,-0.12109 -0.375,-0.25781 -0.54687,-0.41015c-0.20704,-0.21875 -0.19922,-0.5625 0.01562,-0.76954c0.21094,-0.20703 0.54688,-0.20703 0.75781,0c0.1211,0.10157 0.25391,0.19922 0.39063,0.28125c1.41406,0.96875 4.75,3.25391 5.90234,10.73829c0.89063,-3.91407 3.53516,-7.19922 7.16797,-8.91016c0.27734,-0.12891 0.60938,-0.02734 0.76172,0.24219c0.13672,0.24218 0.05078,0.55078 -0.19141,0.6875c-0.00781,0.00781 -0.01953,0.01172 -0.02734,0.01562l-0.08594,0.03906c-5.97265,2.8086 -7.22656,8.96094 -7.22656,13.62891c0,0.30078 -0.24219,0.54297 -0.54297,0.54688zm0,0"/>
   <path id="svg_4" fill-rule="nonzero" fill="rgb(0%,0%,0%)" d="m5.91016,12.01953c-1.46485,0 -2.75782,-0.45703 -3.57032,-1.27344c-2.09765,-2.09765 -2.33984,-6.19531 -2.33984,-9.09765c0,-0.30078 0.24219,-0.54688 0.54297,-0.54688c2.90625,0 7.00781,0.24219 9.10156,2.33985c1.84766,1.84375 1.5625,5.74218 0,7.30468c-0.75,0.75 -2.0664,1.22657 -3.51953,1.26954c-0.07422,0.0039 -0.14453,0.0039 -0.21484,0.0039zm-4.81641,-9.82422c0.03125,2.65235 0.32422,6.08985 2.01563,7.78125c0.64062,0.64063 1.72656,0.98047 2.98046,0.95313c1.14844,-0.03516 2.24219,-0.41016 2.78516,-0.95313c1.16406,-1.16406 1.36328,-4.40234 0,-5.76562c-1.69141,-1.69141 -5.12891,-1.98438 -7.78125,-2.01563zm0,0"/>
   <path id="svg_5" fill-rule="nonzero" fill="rgb(0%,0%,0%)" d="m18.07813,14.17578c-0.07032,0 -0.14063,0 -0.21094,-0.0039c-1.45313,-0.04297 -2.76953,-0.51954 -3.51953,-1.26954c-1.5625,-1.5625 -1.84766,-5.46093 0,-7.30859c2.09375,-2.09375 6.19531,-2.33594 9.09765,-2.33594c0.30078,0 0.54688,0.24219 0.54688,0.54297c0,2.90235 -0.24219,7.00391 -2.33985,9.10156c-0.8164,0.8125 -2.10937,1.27344 -3.57421,1.27344zm4.82031,-9.82812c-2.65625,0.03515 -6.08985,0.32812 -7.78516,2.01953c-1.36328,1.36328 -1.16015,4.60156 0,5.76562c0.54688,0.54297 1.63672,0.91797 2.78516,0.94922c1.24609,0.05078 2.33984,-0.30859 2.98437,-0.95312c1.6875,-1.6875 1.98438,-5.125 2.01563,-7.78125zm0,0"/>
   <path id="svg_6" fill-rule="nonzero" fill="rgb(0%,0%,0%)" d="m11.4375,22.89063c-0.30078,0 -0.54297,-0.2461 -0.54297,-0.54688c0,-11.55078 -4.23828,-14.44922 -5.83203,-15.54297c-0.25,-0.17187 -0.4375,-0.30469 -0.54687,-0.41015c-0.21094,-0.21485 -0.21094,-0.5586 0,-0.76954c0.21484,-0.21484 0.55859,-0.21484 0.77343,0c0.07422,0.07422 0.21094,0.16016 0.38672,0.28125c1.41406,0.96875 4.75391,3.25391 5.90625,10.73829c0.9336,-3.51954 2.98438,-6.94532 7.16406,-8.91016c0.26954,-0.12891 0.63672,-0.03125 0.76563,0.24219c0.12891,0.26953 0.05469,0.57422 -0.21484,0.70312l-0.08985,0.04297c-5.96875,2.80469 -7.22265,8.95703 -7.22265,13.625c0,0.30078 -0.2461,0.54688 -0.54688,0.54688zm0,0"/>
   <path id="svg_7" fill="none" stroke-width="1.5" stroke="rgb(0%,0%,0%)" stroke-miterlimit="4" d="m11.304681,22.234362c0,-0.050781 -0.046875,-0.070313 -0.101562,-0.203125c-0.019531,-0.050781 0,-0.105469 0,-0.15625c0,-0.101563 0,-0.152344 0,-0.152344c0,-0.101562 0,-0.152344 0,-0.203125c0,0 -0.011719,-0.054687 0,-0.101562c0.027344,-0.113281 0.019531,-0.265625 0.101562,-0.511719c0.039063,-0.109375 0.046875,-0.253906 0.050781,-0.304687c0.027344,-0.3125 0.078125,-0.507813 0.105469,-0.664062c0.007812,-0.050781 0.050781,-0.050781 0.050781,-0.050781c0.152343,0 0.226562,0.199219 0.253906,0.40625c0.0625,0.507812 0,0.765625 0,0.917968l0,0.410156"/>
   <path id="svg_8" fill="none" stroke-width="1.5" stroke="rgb(0%,0%,0%)" stroke-miterlimit="4" d="m11.613275,19.171864c0,0 -0.050781,-0.054687 -0.101562,-0.105469c0,0 0,-0.101562 0,-0.152344c0,-0.101562 0,-0.203125 0,-0.253906c0,-0.152344 0,-0.308593 0,-0.511719c0,-0.101562 -0.03125,-0.257812 0,-0.355468c0.050781,-0.179687 0.160156,-0.300781 0.203125,-0.359375c0.066406,-0.09375 0.101562,-0.101562 0.203125,-0.203125l0,-0.050781l0.050781,-0.15625l0.050781,0"/>
   <path id="svg_9" fill="none" stroke-width="1.5" stroke="rgb(0%,0%,0%)" stroke-miterlimit="4" d="m10.999994,16.207022c0,0 0,-0.101563 0,-0.203125c0,-0.304687 0,-0.410156 0,-0.714843c0,-0.203125 -0.101563,-0.355469 -0.101563,-0.511719c0,-0.101562 -0.058594,-0.203125 -0.101562,-0.40625c-0.058594,-0.253906 -0.050781,-0.410156 -0.101562,-0.460937l0,-0.101563l-0.054687,-0.050781"/>
   <path id="svg_10" fill="none" stroke-width="1.5" stroke-linecap="round" stroke="rgb(0%,0%,0%)" stroke-miterlimit="4" d="m14.777335,11.714837l-2.652342,4.902341"/>
   <path id="svg_11" fill="none" stroke-width="1.5" stroke="rgb(49.803922%,0%,0%)" stroke-miterlimit="4" d="m10.183588,5.535153c0,0 0.074219,-0.015625 0.101562,0.050781c0.039063,0.09375 0,0.207031 0,0.359375c0,0.101562 0,0.203125 0,0.253906c0,0 0.039063,0.15625 0.050781,0.203125c0.027344,0.113281 0.050781,0.15625 0.050781,0.207031c0,0.050781 0,0.152344 0,0.203125c0,0 0.023437,0.085937 0.050781,0.152344c0.019531,0.046875 0,0.050781 0,0.101562c0,0.050781 0.050781,0.15625 0.050781,0.15625c0,0.152344 0,0.203125 0,0.304687c0,0.050781 0,0.101562 0,0.152344c0,0.050781 0,0.152344 0,0.152344c0,0.054687 0,0.105469 0,0.207031c0,0 -0.023438,0.085937 -0.050781,0.152344c-0.019531,0.046875 -0.050781,0.050781 -0.101562,0.101562c-0.050781,0.050781 -0.066406,0.066406 -0.101562,0.101562c-0.035156,0.035156 -0.074219,0.035156 -0.101562,0.101563c-0.019531,0.046875 -0.050781,0.105469 -0.050781,0.15625c0,0.050781 -0.050781,0.101562 -0.105469,0.203125c0,0 -0.023437,0.035156 -0.050781,0.101562c-0.019531,0.046875 0,0.101562 0,0.101562c0,0.101562 0,0.152344 0,0.203125c0,0.054687 -0.050781,0.054687 -0.050781,0.105468c0,0.050781 -0.035156,0.074219 -0.101563,0.101563c-0.046875,0.019531 -0.101562,0 -0.101562,0c-0.050781,0 -0.050781,0.050781 -0.101562,0.050781c-0.050781,0 -0.101562,0 -0.101562,0.050781c0,0.050781 0,0.101562 0,0.101562c0,0.050781 0,0.101562 0,0.152344c0,0.050781 0,0.101562 0,0.152344c0,0.105469 0,0.105469 -0.050781,0.105469c-0.050781,0 -0.101562,0 -0.15625,0c0,0 -0.011719,0.011719 -0.050781,0.050781c-0.035156,0.035156 -0.050781,0.050781 -0.050781,0.101562c0,0.050781 0,0.101562 0,0.152344c0,0.050781 0,0.101562 0,0.101562c0,0.050781 0,0.101562 0,0.152344c0,0.054687 -0.015625,0.078125 0.050781,0.105469c0.046875,0.019531 0.050781,0.050781 0.105469,0.101562c0.050781,0.050781 0.101562,0.050781 0.152344,0.050781c0,0 0.144531,0.003906 0.203125,0.101563c0.027344,0.042969 0,0.101562 0,0.101562c0,0.101562 0,0.152344 0,0.203125c0,0 0,0.050781 0,0.105469c0,0.050781 0,0.152344 0,0.203125c0,0.050781 0,0.101562 0,0.101562c0,0.050781 0,0.152344 0,0.203125c0,0.050781 0,0.101563 0,0.101563c0.050781,0.050781 0.101562,0.105469 0.152344,0.105469c0.050781,0 0.066406,0.011719 0.101562,0.050781c0.039063,0.035156 0.050781,0.050781 0.105469,0.152344c0,0 0,0.101562 0,0.152344c0,0.050781 0,0.101562 0,0.152344c0,0.050781 -0.054687,0.101562 -0.054687,0.101562c0,0.050781 0,0.15625 0,0.207031c0,0.050781 0.054687,0.101562 0.054687,0.152344c0,0.050781 0.050781,0.050781 0.050781,0.050781c0.050781,0.050781 0.050781,0.101562 0.050781,0.203125c0,0 0,0.050781 0,0.101562c0,0.105469 0,0.105469 0,0.15625c0,0.050781 0.09375,0.054687 0.152343,0.152344c0.027344,0.042969 0,0.101562 0,0.152344c0,0.050781 0,0.101562 0,0.152344c0,0.050781 -0.035156,0.117187 0,0.152343c0.035156,0.039063 0.101563,0.105469 0.152344,0.105469c0.050781,0 0.050781,0.050781 0.050781,0.050781c0.050781,0.050781 0.050781,0.152344 0.050781,0.203125c0,0 0,0.050781 0,0.101563c0,0.050781 0,0.101562 0.050781,0.152344c0.050781,0.050781 0.128906,0.089843 0.15625,0.15625c0.019531,0.046875 0,0.101562 0,0.152344c0,0.050781 0,0.050781 0,0.152344c0,0.050781 0.023437,0.085937 0.050781,0.152344c0.019531,0.046875 0,0.101562 0,0.152343c0,0 0,0.054688 0,0.15625c0,0.050781 0,0.050781 0,0.101562c0,0.050781 -0.019531,0.105469 0,0.152344c0.027344,0.066406 0.085938,0.113281 0.152344,0.203125c0.042969,0.058594 0.117187,0.066406 0.152344,0.101562c0.035156,0.039062 0,0.105469 0,0.105469c0,0.050781 0,0.101562 0,0.152344c0,0.050781 0.144531,0.054687 0.203125,0.152343c0.027344,0.042969 0,0.101563 0,0.101563c0,0.050781 0.019531,0.15625 0,0.203125c-0.027344,0.070312 -0.050781,0.105469 -0.050781,0.15625c0,0.050781 -0.042969,0.195312 0.050781,0.253906c0.042969,0.027344 0.050781,0.101562 0.050781,0.152344c0,0.050781 0,0.101562 0,0.152343c0,0.054688 0,0.105469 0,0.105469c0,0.101563 0,0.203125 0,0.203125c0,0.050781 0,0.152344 0,0.203125c0,0 -0.019531,0.054688 0,0.101563c0.03125,0.066406 0.117187,0.117187 0.15625,0.15625c0.070312,0.070313 0,0.152344 0,0.152344c0,0.101562 0,0.152344 0,0.203125c0,0 0,0.101563 0,0.152344c0,0.050781 0,0.101563 0,0.207032c0,0.050781 0,0.050781 0,0.253906c0,0.050781 0,0.152343 0.050781,0.203125c0,0 0.050781,0.101562 0.050781,0.152344c0,0.054687 0.015625,0.0625 -0.050781,0.15625c-0.042969,0.058594 -0.066406,0.066406 -0.101562,0.101563c-0.039063,0.035156 0,0.101562 0,0.152344c0,0.050781 0,0.050781 0,0.101562c0,0.101562 0,0.152344 0,0.152344c0.050781,0.207031 0.144531,0.210937 0.203125,0.308593c0.054688,0.085937 0,0.101562 0,0.152344c0,0.050781 0,0.101562 0,0.152344c0,0 0.035156,0.167968 0,0.207031c-0.035156,0.035156 -0.003906,0.140625 -0.101562,0.203125c-0.042969,0.027344 -0.050781,0.050781 -0.050781,0.101563c0,0.050781 0,0.101562 0,0.101562c0,0.050781 -0.078125,0.046875 -0.101563,0.203125c-0.019531,0.101562 0,0.15625 0,0.207031c0,0 -0.054687,0.101563 0,0.101563c0.050781,0 0,-0.101563 0,-0.101563c0.050781,-0.050781 0.101563,-0.101562 0.101563,-0.15625c0,-0.050781 0.101562,-0.050781 0.101562,-0.101562c0,-0.050781 0,-0.101563 0,-0.152344c0,-0.101562 -0.050781,-0.152344 -0.101562,-0.152344c0,0 -0.050781,-0.050781 -0.050781,-0.050781c-0.050781,0 -0.050781,-0.050781 -0.050781,-0.101562c0,-0.050781 0,-0.101562 0,-0.101562c0.050781,-0.054687 0.085938,-0.179687 0.152344,-0.207031c0.046875,-0.019531 0.125,0.015625 0.152344,-0.050781c0.039062,-0.09375 0,-0.152344 0,-0.203125c0,-0.101563 0,-0.152344 0,-0.152344c0,-0.050781 -0.066406,-0.066406 -0.101562,-0.101562c-0.035156,-0.039063 -0.101562,-0.105469 -0.101562,-0.105469c-0.050781,0 -0.136719,-0.003906 -0.15625,-0.050781c-0.027344,-0.066406 -0.050781,-0.152344 -0.050781,-0.152344c0,-0.050781 -0.035156,-0.167969 0,-0.203125c0.039063,-0.035156 0.15625,-0.050781 0.207032,-0.101563c0.050781,-0.050781 0.101562,-0.101562 0.101562,-0.101562c0.050781,-0.105469 0.050781,-0.207031 0.050781,-0.207031c-0.050781,-0.050781 -0.101562,-0.101562 -0.152343,-0.152344c0,0 -0.078125,-0.042969 -0.101563,-0.152344c-0.011719,-0.050781 0,-0.101562 0,-0.101562c0,-0.050781 0,-0.101562 0.050781,-0.15625c0.050781,-0.050781 0.050781,-0.050781 0.050781,-0.101563c0,-0.050781 0,-0.101562 0,-0.152344c0,0 0.023437,-0.085937 0.050781,-0.152343c0.019531,-0.046875 0,-0.101563 0,-0.152344c0,-0.050781 0,-0.101562 0,-0.101562c0,-0.15625 -0.019531,-0.210937 0,-0.257812c0.027344,-0.066406 0.125,-0.136719 0.152344,-0.203125c0.019531,-0.046875 0.015625,-0.117187 0.050781,-0.152344c0.035156,-0.039062 0.117187,0.035156 0.152343,0c0.035156,-0.039062 0.015625,-0.066406 0.050781,-0.105469c0.039063,-0.035156 0.023437,-0.070312 0.101562,-0.152343c0.082031,-0.078125 0.054688,-0.152344 0.054688,-0.203125c0,-0.101562 -0.054688,-0.152344 -0.054688,-0.152344c-0.050781,-0.101562 -0.050781,-0.152343 -0.050781,-0.207031c0,0 0,-0.050781 0,-0.101562c0,-0.050781 0,-0.101562 0,-0.101562c0,-0.050781 0.035156,-0.175782 0.105469,-0.203125c0.046875,-0.019531 0.074219,-0.035156 0.101562,-0.101562c0.019531,-0.046875 0,-0.101562 0,-0.207031c0,-0.101562 0,-0.152344 0,-0.253906c0,-0.050781 0.074219,-0.085938 0.101562,-0.152344c0.019531,-0.046875 0.050781,-0.101562 0.101562,-0.101562c0.101563,0 0.066406,-0.066406 0.101563,-0.101563c0.035156,-0.039062 0.101562,-0.105469 0.101562,-0.15625c0,-0.101562 0,-0.152344 0,-0.152344c0.050781,-0.050781 0.074219,-0.085937 0.101562,-0.152344c0.019531,-0.046875 0,-0.101562 0,-0.152344c0,-0.050781 0,-0.101562 0,-0.101562c0,-0.050781 -0.027344,-0.109375 0,-0.207031c0.054687,-0.175781 0.257812,-0.152344 0.257812,-0.203125c0,-0.050781 0.050781,-0.050781 0.050781,-0.203125c0,0 0.050781,-0.15625 0.050781,-0.207031c0,0 0,-0.152344 0,-0.203125c0,-0.101562 0,-0.203125 0,-0.203125c0.050781,-0.050781 0.050781,-0.101562 0.101562,-0.101562c0.050781,0 0.066406,-0.066406 0.101562,-0.101563c0.035156,-0.039062 0.050781,0 0.101563,0c0.101562,0 0.15625,-0.054687 0.15625,-0.105469c0,-0.050781 0.058594,-0.097656 0.101563,-0.203125c0.0625,-0.148437 -0.007813,-0.265625 0.050781,-0.40625c0.027344,-0.070312 0.070312,-0.125 0.152344,-0.207031c0.082031,-0.078125 0.101562,-0.101562 0.101562,-0.101562c0.050781,0 0.085937,-0.074219 0.152344,-0.101563c0.046875,-0.019531 0.070312,-0.078125 0.15625,-0.152343c0.136719,-0.121094 0.152343,-0.152344 0.152343,-0.207032c0,-0.050781 0.050781,-0.101562 0.152344,-0.152344c0,0 -0.019531,-0.105468 0,-0.152343c0.027344,-0.066406 0.152344,-0.078125 0.203125,-0.253906c0.015625,-0.050781 -0.027344,-0.109375 0,-0.15625c0.0625,-0.09375 0.179687,-0.039062 0.207031,-0.152344c0.011719,-0.046875 0.023437,-0.035156 0.050781,-0.101562c0.019531,-0.046875 -0.015625,-0.109375 0.050781,-0.203125c0.042969,-0.058594 0.050781,-0.101562 0.101563,-0.203125c0,0 0.003906,-0.035156 0.050781,-0.054687c0.066406,-0.027344 0.101562,-0.050781 0.203125,-0.050781c0.050781,0 0.136719,-0.074219 0.207031,-0.101562c0.046875,-0.019531 0.101562,-0.050781 0.152344,-0.101562c0,0 0.058594,-0.035156 0.152344,-0.101563c0.058594,-0.042969 0.074218,-0.085937 0.101562,-0.152343c0.019531,-0.046875 0.101562,-0.050781 0.101562,-0.101563c0,-0.054687 0.050781,-0.054687 0.050781,-0.054687c0.050781,0 0.085937,-0.074219 0.15625,-0.101562c0.046875,-0.019531 0.160156,0.007812 0.203125,-0.050781c0.066406,-0.089844 0.03125,-0.15625 0.050781,-0.203125c0.027344,-0.066406 0.066406,-0.117188 0.101562,-0.152344c0.074219,-0.074219 0.101563,0 0.152344,0c0.050781,0 0.101563,0 0.152344,0c0.054688,0 0.105469,0 0.15625,-0.050781c0.050781,-0.050781 0.054687,-0.09375 0.152344,-0.15625c0.042969,-0.023438 0.101562,-0.152344 0.101562,-0.203125c0,0 0.03125,-0.003906 0.050781,-0.050781c0.027344,-0.066406 0.101563,-0.101563 0.152344,-0.152344c0,0 0.050781,-0.101563 0.101562,-0.101563c0.054688,0 0.105469,0 0.105469,0c0.050781,0 0.101563,0 0.152344,0c0.050781,0 0.050781,-0.101562 0.101563,-0.101562c0.050781,0 0.132812,-0.054687 0.152343,-0.105469c0.027344,-0.066406 0.117188,-0.117187 0.152344,-0.152344c0.039063,-0.035156 0.035156,-0.074219 0.105469,-0.101562c0.046875,-0.019531 0.101562,0 0.152344,-0.050781c0,0 0.050781,0 0.101562,0l0.101562,-0.101562l0,-0.050781"/>
   <path id="svg_12" fill="none" stroke-width="1.5" stroke="rgb(22.745098%,0.784314%,0.784314%)" stroke-miterlimit="4" d="m0.734375,1.499999c0,0 -0.050781,0 -0.101562,0c0,0 0,0.105469 0,0.15625c0,0.050781 -0.023438,0.136718 -0.050781,0.203125c-0.039062,0.09375 -0.050781,0.203125 -0.050781,0.253906c0,0.050781 0,0.15625 0,0.207031c0,0 0,0.050781 0,0.101562c0,0.050781 0,0.101563 0,0.101563c0,0.050781 -0.039063,0.109375 0,0.203125c0.027344,0.066406 0.152343,0.101563 0.152343,0.152344c0,0.054687 0,0.054687 0,0.15625c0,0.050781 0,0.101562 0,0.152344c0,0.050781 0,0.152343 0,0.152343c0,0.050781 0,0.101563 0,0.152344c0,0.050781 0,0.101562 0,0.207031c0,0 0,0.050781 0,0.050781c0,0.050781 0,0.203125 0,0.203125c0,0.050781 0,0.152344 0,0.203125c0,0.050781 0,0.101562 0,0.152344c0,0.054687 0,0.105469 0,0.15625c0,0.101563 -0.058594,0.113281 0,0.253906c0.027344,0.066406 0.15625,0.101563 0.15625,0.152344c0,0.050781 0,0.152344 0,0.207031c0,0.152344 0,0.253906 0,0.304687c0,0.101562 -0.023437,0.136719 -0.054687,0.203125c-0.019531,0.046875 0,0.101562 0,0.207031c0,0 0.039062,0.058594 0,0.152344c-0.027344,0.066406 -0.050781,0.101562 -0.050781,0.152344c0,0.050781 0,0.101562 0,0.101562c0.105469,0.101562 0.105469,0.152344 0.15625,0.203125c0,0 0,0.105469 0.101562,0.207031c0,0 0.007812,0.042969 0.050781,0.101563c0.066406,0.09375 0.050781,0.101562 0.050781,0.152343c0,0.101563 0,0.152344 0,0.152344c0,0.15625 0,0.257812 0,0.359375c0,0.050781 0,0.050781 0,0.101563c0,0.152343 0.050781,0.203125 0.050781,0.253906c0,0.050781 0.058594,0.078125 0.101562,0.101562c0.097656,0.0625 0.054687,0.136719 0.101562,0.15625c0.066406,0.027344 0.066406,0.066406 0.101562,0.101563c0.039063,0.035156 0.050781,0.152343 0.050781,0.203125c0,0.050781 0,0.101562 0,0.152344c0,0 0.085937,0.054687 0.105469,0.101562c0.027344,0.070312 0.125,0.09375 0.152344,0.207031c0.011719,0.046875 0.035156,0.074219 0.101562,0.101563c0.046875,0.019531 0.101562,0.050781 0.101562,0.101562c0,0.050781 0.066406,0.066406 0.101563,0.101562c0.074219,0.074219 0.050781,0.152344 0.050781,0.257812c0,0.050781 0.117187,0.117187 0.15625,0.152344c0.035156,0.035156 0.011719,0.167969 0.050781,0.203125c0.035156,0.035156 0.152344,0.101562 0.203125,0.203125c0,0 0,0.050781 0.050781,0.101562c0.050781,0.054687 0.101563,0.105469 0.152344,0.105469c0,0 -0.019531,0.105469 0,0.152344c0.027344,0.066406 0.101563,0.050781 0.101563,0.050781c0.050781,0 0.105468,0 0.15625,0c0.050781,0 0.054687,0.042969 0.152344,0.101563c0.042969,0.027344 0.101562,0 0.152344,0.050781c0.050781,0.050781 0.105469,0.195312 0.203125,0.257812c0.042969,0.023437 0.035156,0.074219 0.101562,0.101562c0.050781,0.019531 0.15625,0.050781 0.207032,0.101562c0,0 0.109375,-0.027344 0.152343,0c0.097656,0.058594 0.085938,0.125 0.152344,0.152344c0.046875,0.019531 0.101562,0 0.257812,0c0,0 0.105469,-0.019531 0.152344,0c0.066406,0.027344 0.203125,0.101563 0.253906,0.101563c0,0 0.054687,-0.003906 0.152344,0.050781c0.160156,0.09375 0.257812,0.101562 0.257812,0.101562c0.203125,0.105469 0.222656,0.152344 0.355468,0.207032c0.046875,0.019531 0.101562,0 0.152344,0c0.105469,0 0.257812,0 0.308593,0c0.101563,0 0.214844,0.015625 0.304687,-0.050781c0.117187,-0.085937 0.222656,-0.183594 0.308593,-0.257812c0.121094,-0.105469 0.203125,-0.101562 0.253906,-0.101562c0.050781,0 0.152344,0 0.152344,0c0.101562,0 0.15625,-0.050781 0.207031,-0.101562c0,0 0.0625,-0.015625 0.101563,-0.050781c0.035156,-0.035156 0.09375,-0.078125 0.203125,-0.101562c0.050781,-0.011719 0.101562,0 0.101562,0c0.050781,-0.050781 0.167969,-0.117187 0.203125,-0.152344c0.074219,-0.074219 0.15625,0 0.207031,0c0,0 0.050781,0 0.101562,0c0.101562,0 0.101562,0 0.152344,0c0.101562,0 0.101562,-0.054687 0.152344,-0.105469c0.050781,-0.050781 0.15625,-0.101562 0.207031,-0.101562c0,0 -0.015625,-0.074219 0.050781,-0.101562c0.046875,-0.019531 0.152344,0 0.152344,0c0.050781,0 0.101562,0 0.152344,0l0.050781,0"/>
   <path id="svg_13" fill="none" stroke-width="1.5" stroke="rgb(22.745098%,0.784314%,0.784314%)" stroke-miterlimit="4" d="m11.714837,21.97655c-0.050781,-0.101562 -0.054687,-0.195312 -0.152344,-0.253906c-0.042969,-0.027344 -0.21875,-0.015625 -0.257812,-0.050781c-0.070312,-0.070312 -0.03125,-0.105469 -0.050781,-0.152344c-0.027344,-0.066406 -0.050781,-0.101562 -0.050781,-0.152343c0,-0.050781 0,-0.105469 0,-0.207032c0,-0.050781 -0.039062,-0.058594 0,-0.152344c0.027344,-0.066406 0.074219,-0.085937 0.101562,-0.152343c0.019531,-0.046875 0.15625,-0.152344 0.207032,-0.152344c0,0 -0.015625,-0.074219 0.050781,-0.101562c0.046875,-0.019531 0.101562,-0.105469 0.101562,-0.105469c0.050781,-0.101563 0.101563,-0.203125 0.101563,-0.203125c0,-0.050781 -0.039063,-0.109375 0,-0.203125c0.027344,-0.066406 0.085937,-0.167969 0.050781,-0.203125c-0.035156,-0.039062 -0.050781,-0.054687 -0.101562,-0.105469c0,0 -0.109375,-0.09375 -0.152344,-0.152344c-0.066406,-0.09375 -0.066406,-0.066406 -0.101562,-0.101562c-0.039063,-0.035156 0,-0.050781 0,-0.101562c0,-0.050781 0,-0.152344 0,-0.203125c0,-0.050781 0,-0.15625 0,-0.15625c0,-0.050781 0,-0.152344 0,-0.203125c0,0 0,-0.101562 0,-0.152343c0,-0.050781 0,-0.050781 0,-0.101563c0,-0.050781 0.050781,-0.152343 0.050781,-0.152343c0,-0.054688 -0.019531,-0.152344 -0.15625,-0.207032c-0.046875,-0.019531 -0.050781,0 -0.101562,-0.050781c-0.101562,-0.101562 -0.101562,-0.152344 -0.101562,-0.152344c0,-0.050781 -0.023438,-0.105469 0,-0.203125c0.027344,-0.113281 0.066406,-0.167968 0.101562,-0.207031c0.039062,-0.035156 0.085937,-0.125 0.15625,-0.152344c0.046875,-0.019531 0.0625,-0.015625 0.101563,-0.050781c0.035156,-0.035156 0.015625,-0.113281 -0.050781,-0.203125c-0.042969,-0.058594 -0.105469,-0.101562 -0.15625,-0.207031c-0.050781,-0.101562 -0.125,-0.136719 -0.152343,-0.203125c-0.019531,-0.046875 -0.050781,-0.050781 -0.050781,-0.203125c0,-0.050781 0,-0.101562 0,-0.152344c0,-0.050781 0,-0.101562 0,-0.15625c0,-0.152344 0,-0.203125 0,-0.253906c0,-0.050781 0,-0.050781 0,-0.101562c0,-0.050781 0.035156,-0.117188 0,-0.152344c-0.035156,-0.039063 -0.175781,0.015625 -0.203125,-0.050781c-0.019531,-0.046875 -0.03125,-0.054687 -0.050781,-0.101562c-0.027344,-0.070312 -0.152344,-0.054688 -0.152344,-0.105469c0,-0.050781 0,-0.101562 0,-0.152344c0,0 0,-0.152344 0,-0.203125c0,0 0,-0.101563 0,-0.152344c0,-0.050781 0,-0.050781 0,-0.101563c0,-0.105468 -0.015625,-0.117187 -0.054687,-0.15625c-0.035156,-0.035156 -0.125,-0.085937 -0.152344,-0.152344c-0.019531,-0.046875 0,-0.050781 0,-0.101562c0,-0.050781 -0.050781,-0.101563 -0.101562,-0.152344c0,0 0,-0.101562 0,-0.207031c0,0 0,-0.050781 0,-0.101562c0,-0.050781 0,-0.101563 0,-0.152344c0,-0.050781 0,-0.101563 0,-0.152344c0,-0.101562 0.035156,-0.167969 0,-0.203125c-0.070313,-0.074219 -0.152344,-0.09375 -0.203125,-0.105469c-0.113281,-0.023437 -0.136719,-0.074219 -0.207031,-0.101562c-0.046875,-0.019531 -0.050781,-0.050781 -0.101562,-0.101562l0,-0.050781"/>
   <path id="svg_14" fill="none" stroke-width="1.5" stroke="rgb(22.745098%,0.784314%,0.784314%)" stroke-miterlimit="4" d="m18.914051,8.292964c-0.050781,0 -0.109375,0.039063 -0.203125,0c-0.066406,-0.027344 -0.15625,-0.089844 -0.203125,-0.101562c-0.113281,-0.027344 -0.207031,-0.050781 -0.257812,-0.050781c-0.050781,0 -0.152343,0 -0.203125,0.101562c0,0 -0.109375,0.074219 -0.152344,0.101563c-0.097656,0.0625 -0.179687,0.136719 -0.207031,0.203125c-0.019531,0.050781 -0.011719,0.117187 -0.050781,0.15625c-0.035156,0.035156 -0.054687,0.09375 -0.152344,0.152344c-0.042969,0.027344 -0.050781,0 -0.101562,0c-0.050781,0 -0.054687,0.042969 -0.152344,0.101562c-0.085937,0.054687 -0.105469,0.03125 -0.152343,0.050781c-0.070313,0.027344 -0.105469,0.050781 -0.15625,0.101562c-0.050781,0.050781 -0.21875,0.09375 -0.304687,0.257812c-0.023437,0.042969 0,0.101563 0,0.152344c0,0.101563 -0.003906,0.132813 -0.050781,0.152344c-0.132813,0.054688 -0.117188,0.167969 -0.152344,0.203125c-0.039063,0.039062 -0.015625,0.066406 -0.050781,0.101562c-0.074219,0.074219 -0.15625,0 -0.207031,0c-0.101562,0 -0.152344,0 -0.152344,0c-0.101562,0 -0.203125,0.105469 -0.203125,0.105469c-0.050781,0.101562 -0.0625,0.210937 -0.101563,0.304687c-0.027344,0.066406 -0.035156,0.113281 -0.105469,0.203125c-0.039062,0.058594 -0.050781,0.105469 -0.050781,0.105469c-0.050781,0 -0.152344,0.101562 -0.152344,0.152344c0,0.050781 -0.152344,0.050781 -0.203125,0.050781c-0.050781,0 -0.101563,0 -0.203125,0c0,0 -0.054687,-0.019531 -0.105469,0c-0.066406,0.027344 -0.078125,0.105469 -0.101562,0.203125c-0.023438,0.113281 -0.054687,0.183594 -0.101562,0.203125c-0.066406,0.027344 -0.101563,0.207032 -0.152344,0.308594c-0.050781,0.101562 -0.066406,0.117187 -0.101563,0.152344c-0.074218,0.074219 -0.035156,0.214843 -0.101562,0.304687c-0.042969,0.058594 -0.027344,0.113281 -0.050781,0.15625c-0.0625,0.097656 -0.105469,0.101562 -0.105469,0.101562c-0.101562,0 -0.175782,-0.015625 -0.203125,0.050781c-0.019531,0.046875 -0.09375,0.125 -0.203125,0.152344c-0.050781,0.011719 -0.148437,0.019531 -0.203125,0.152343c-0.019531,0.046875 0.023438,0.054688 0,0.15625c-0.027344,0.109375 -0.078125,0.234375 -0.15625,0.355468c-0.082031,0.136719 -0.011719,0.160157 -0.050781,0.253906c-0.054687,0.136719 -0.082031,0.160157 -0.101562,0.207032c-0.027344,0.066406 -0.074219,0.09375 -0.101562,0.203125c-0.023438,0.097656 0,0.101562 0,0.152344c0,0.101562 -0.015625,0.117187 -0.050781,0.152344c-0.035156,0.039062 -0.074219,0.089844 -0.101562,0.15625c-0.019531,0.046875 -0.050781,0.152344 -0.050781,0.253906c0,0 -0.074219,0.035156 -0.101562,0.101563c-0.039062,0.09375 -0.078125,0.085937 -0.105469,0.152344c-0.019531,0.046875 0.015625,0.113281 -0.050781,0.207031c-0.039062,0.058594 -0.101562,0.101562 -0.152343,0.101562c-0.050781,0 -0.105469,-0.019531 -0.152344,0c-0.066406,0.027344 -0.050781,0.101562 -0.050781,0.203125c0,0.050781 -0.050781,0.203125 -0.050781,0.253906c0,0.054688 0,0.105469 0,0.207032c0,0.050781 0,0.203125 0,0.203125c0,0.101562 0.035156,0.167969 0,0.203125c-0.035156,0.039062 -0.03125,0.003906 -0.050781,0.050781c-0.027344,0.066406 -0.066406,0.066406 -0.101562,0.105469c-0.039063,0.035156 -0.105469,0 -0.15625,0.050781c0,0 -0.058594,-0.007813 -0.101562,0.050781c-0.066406,0.089844 -0.066406,0.117188 -0.101562,0.152344c-0.070313,0.070313 -0.050781,0.203125 -0.050781,0.304687c0,0.101562 -0.050781,0.132812 -0.101562,0.308593c-0.03125,0.097656 -0.101562,0.203125 -0.101562,0.304687c0,0.050781 0,0.101562 0,0.152344c0,0.105469 0,0.15625 0,0.207031c0,0.101562 0,0.152344 0,0.203125c0,0.050781 0,0.152343 0,0.152343c0,0 0.050781,0.050781 0.050781,0.207032c0,0 0.125,0.136718 0.152344,0.203125c0.019531,0.046875 0,0.101562 0,0.152344c0,0.050781 0,0.050781 0,0.152344c0,0 -0.015625,0.066406 -0.050781,0.101562c-0.074219,0.074219 0,0.15625 -0.050781,0.207031c0,0 -0.074219,0.085937 -0.101562,0.152344c-0.019531,0.046875 -0.074219,0.085937 -0.101563,0.152344c-0.019531,0.046875 0,0.101562 0,0.152344c0,0.15625 0,0.15625 0,0.207031c0,0.050781 0,0.152344 0,0.152344c0,0.050781 0.070313,0.132812 0,0.203125c-0.039062,0.035156 -0.105469,0.050781 -0.105469,0.101562c0,0.050781 -0.011719,0.066406 -0.050781,0.101563c-0.035156,0.039062 0,0.105469 0,0.207031c0,0 0,0.152344 0,0.203125c0,0.101562 0.050781,0.152344 0.050781,0.203125c0,0.050781 0.074219,0.136719 0.105469,0.207031c0.019531,0.046875 0.0625,0.167969 0.101563,0.203125c0.035156,0.035156 0.050781,0.050781 0.050781,0.101563c0,0.050781 0.050781,0.101562 0.050781,0.050781c0,-0.203125 -0.019531,-0.308593 0,-0.355468c0.027344,-0.070312 0.050781,-0.105469 0.050781,-0.207031c0,-0.050781 0,-0.152344 0,-0.203125c0,-0.050781 0.03125,-0.148437 -0.101562,-0.203125c-0.046875,-0.019531 -0.054687,0.019531 -0.101562,0c-0.066406,-0.027344 -0.136719,-0.105469 -0.15625,-0.15625c-0.027344,-0.066406 0.007813,-0.113281 -0.050781,-0.253906c-0.027344,-0.066406 -0.050781,-0.203125 -0.050781,-0.304687c0,-0.101562 0.046875,-0.070312 0.101562,-0.207031c0.019531,-0.046875 0.003906,-0.03125 0.050781,-0.050781c0.070312,-0.027344 0.167969,0.007812 0.308593,-0.050781c0.066406,-0.027344 0.015625,-0.117187 0.050781,-0.152344c0.035156,-0.035156 0.117187,-0.015625 0.152344,-0.050781c0.074219,-0.074219 0,-0.203125 0,-0.253906l0,-0.050781l0.050781,-0.054687"/>
   <path id="svg_15" fill="none" stroke-width="1.5" stroke="rgb(22.745098%,0.784314%,0.784314%)" stroke-miterlimit="4" d="m10.183588,5.484372c-0.050781,0 -0.035156,0.015625 0,0.050781c0.035156,0.035156 0.074219,0.042969 0.101562,0.152344c0.011719,0.050781 0,0.050781 0,0.105469c0,0 0.023438,0.039062 0.050781,0.152344c0.011719,0.050781 0.039062,0.058594 0,0.152344c-0.027344,0.066406 -0.054687,0.082031 -0.101562,0.101562c-0.066406,0.027344 -0.101562,0.101562 -0.152344,0.152344c0,0 -0.070312,0.054687 -0.050781,0.105468c0.082031,0.199219 0.5,0.308594 0.558594,0.40625c0.027344,0.042969 0,0.101563 0,0.152344c0,0.050781 -0.101562,0.050781 -0.101562,0.101562c0,0 -0.042969,0.078125 -0.152344,0.105469c-0.050781,0.011719 -0.050781,0.050781 -0.050781,0.101563c0,0.050781 0,0.101562 0,0.152344c0,0.050781 0,0.101562 0,0.152343c0,0 0.058594,0.042969 0.101563,0.101563c0.066406,0.09375 0.101562,0.101562 0.101562,0.15625c0,0.050781 0,0.101562 0,0.152344c0,0.050781 0,0.101562 0,0.152344c0,0.050781 0,0.050781 -0.050781,0.050781c-0.050781,0 -0.101562,0 -0.152344,0c-0.050781,0 -0.105469,-0.019531 -0.152343,0c-0.066406,0.027344 -0.050781,0.050781 -0.050781,0.101563c0,0.050781 0,0.101562 0,0.152344c0,0.050781 0,0.105469 0,0.15625c0,0 -0.027344,0.039063 -0.050781,0.152344c-0.011719,0.050781 -0.054687,0.050781 -0.105469,0.101562c-0.050781,0.050781 -0.101562,0.050781 -0.152344,0.101563c-0.050781,0.050781 -0.101562,0.050781 -0.101562,0.050781c-0.050781,0.050781 -0.050781,0.101562 -0.050781,0.203125c0,0 -0.011719,0.054687 0,0.105468c0.027344,0.109375 0.050781,0.101563 0.050781,0.152344c0,0.050781 -0.003906,0.082031 -0.050781,0.101563c-0.066406,0.027344 -0.152344,0.050781 -0.253907,0.152343c-0.050781,0.050781 -0.066406,0.066406 -0.105468,0.101563c-0.035156,0.039062 -0.101563,0.050781 -0.101563,0.101562c0,0.054687 0.011719,0.097656 0.050781,0.15625c0.066406,0.089843 0.03125,0.15625 0.050781,0.203125c0.03125,0.066406 0.128906,0.085937 0.15625,0.152344c0.019531,0.046875 0,0.152344 0,0.207031c0,0.050781 -0.125,0.078125 -0.050781,0.152344c0.035156,0.035156 0.082031,0.054687 0.101563,0.101562c0.027344,0.066406 0.109375,0.125 0.152344,0.152344c0.097656,0.058594 0.050781,0.152344 0.050781,0.203125c0,0.050781 0,0.105469 0,0.207032c0,0 -0.023437,0.035156 -0.050781,0.101562c-0.039063,0.09375 0,0.101562 0,0.152344c0,0.101562 0.015625,0.117187 0.050781,0.152343c0.035156,0.035156 0.03125,0.054688 0.050781,0.101563c0.027344,0.066406 0.101562,0.105469 0.152344,0.105469c0,0 0,0.050781 0,0.152344c0,0.050781 -0.050781,0.101562 -0.050781,0.152343c0,0.050781 0,0.101563 0,0.203125c0,0.050781 -0.011719,0.105469 0,0.152344c0.027344,0.113281 0.054687,0.136718 0.101562,0.15625c0.066406,0.027344 0.128906,0.085938 0.15625,0.152344c0.019531,0.046875 0,0.050781 0.050781,0.101562c0.050781,0.050781 0.050781,0.152344 0.050781,0.152344c0,0.050781 0,0.101562 0,0.152344c0,0.054687 0,0.105469 0,0.15625l0,0.101562l-0.050781,0"/>
   <path id="svg_16" fill="none" stroke-width="1.5" stroke-linecap="round" stroke="rgb(22.745098%,0.784314%,0.784314%)" stroke-miterlimit="4" d="m7.374996,10.335932l0,0"/>
   <path id="svg_17" fill="none" stroke-width="1.5" stroke="rgb(22.745098%,0.784314%,0.784314%)" stroke-miterlimit="4" d="m6.351559,10.031244c-0.050781,0 -0.101563,0 -0.152344,0"/>
   <path id="svg_18" fill="none" stroke-width="1.5" stroke="rgb(22.745098%,0.784314%,0.784314%)" stroke-miterlimit="4" d="m7.015621,9.417963c-0.050781,0 -0.105469,0.019531 -0.152344,0c-0.066406,-0.027344 -0.035156,-0.027344 -0.101562,0c-0.046875,0.019531 -0.101562,0.050781 -0.101562,0.050781l-0.050781,0"/>
   <path id="svg_19" fill="none" stroke-width="1.5" stroke="rgb(22.745098%,0.784314%,0.784314%)" stroke-miterlimit="4" d="m8.957026,8.242182c0,0 -0.050781,0 -0.050781,-0.050781c0,-0.050781 0,-0.101562 0,-0.152344l-0.050781,0"/>
   <path id="svg_20" fill="none" stroke-width="1.5" stroke="rgb(22.745098%,0.784314%,0.784314%)" stroke-miterlimit="4" d="m14.726554,9.874994c0,0 -0.023437,0.015625 -0.050781,-0.050781c-0.019531,-0.046875 0,-0.101562 0,-0.152344c0,-0.050781 0.101562,-0.101562 0.152344,-0.101562l0.15625,-0.050781l0.050781,0"/>
   <path id="svg_21" fill="none" stroke-width="1.5" stroke="rgb(22.745098%,0.784314%,0.784314%)" stroke-miterlimit="4" d="m15.800772,9.160151c0,0 -0.039063,-0.066406 0,-0.101562c0.035156,-0.035156 0.101562,-0.050781 0.152344,-0.101562c0.050781,-0.050781 0.066406,-0.015625 0.101562,-0.050781c0.035156,-0.035156 0,-0.050781 0,-0.152344l0,-0.050781l-0.050781,0l0.050781,0"/>
   <path id="svg_22" fill="none" stroke-width="1.5" stroke="rgb(22.745098%,0.784314%,0.784314%)" stroke-miterlimit="4" d="m15.390616,11.664055c0,0 0.105469,-0.03125 0.152344,-0.050781c0.066406,-0.027344 0.054687,-0.089844 0.105469,-0.101562c0.109375,-0.027344 0.113281,-0.066406 0.152344,-0.101563c0.035156,-0.039062 0.101562,0 0.101562,-0.054687l-0.050781,-0.050781l0,-0.050781"/>
   <path id="svg_23" fill="none" stroke-width="1.5" stroke="rgb(22.745098%,0.784314%,0.784314%)" stroke-miterlimit="4" d="m16.71874,10.589838c0.050781,-0.050781 0.101563,-0.050781 0.101563,-0.050781c0.050781,0 0.101562,0 0.152344,0c0.050781,0 0.015625,-0.015625 0.050781,-0.050781c0.074219,-0.070313 0.105469,-0.050781 0.15625,-0.101562c0.050781,-0.050781 0.050781,-0.101563 0.050781,-0.101563l0,-0.152343"/>
   <path id="svg_24" fill="none" stroke-width="1.5" stroke="rgb(22.745098%,0.784314%,0.784314%)" stroke-miterlimit="4" d="m9.468745,6.710934c0,0 0,-0.050781 0,-0.101563c0,0 0,-0.101562 0,-0.152344c0,-0.054687 0.101562,-0.105468 0.152344,-0.15625l0,-0.101562"/>
   <path id="svg_25" fill="none" stroke-width="1.5" stroke="rgb(22.745098%,0.784314%,0.784314%)" stroke-miterlimit="4" d="m4.769528,10.488275c0,0 0,0 -0.050781,0c-0.050781,0 -0.101562,0 -0.152343,0c0,0 -0.066406,-0.015625 -0.101563,-0.050781c-0.039062,-0.035156 -0.050781,-0.050781 -0.101562,-0.101562l0,-0.050781"/>
  </g>
  <path d="m8.03683,8.625301c0,0 -0.116798,0.024545 -0.160129,-0.080064c-0.030639,-0.073969 -0.134479,-0.162196 -0.160128,-0.320256c-0.040555,-0.249915 0.033164,-0.287092 -0.080064,-0.40032c-0.056613,-0.056613 -0.183578,0.056613 -0.240192,0c-0.056614,-0.056614 -0.080064,-0.160128 -0.160128,-0.160128c-0.080064,0 -0.166223,-0.049425 -0.240192,-0.080064c-0.104609,-0.04333 -0.135583,-0.196861 -0.240192,-0.240192c-0.073969,-0.030639 -0.086158,-0.049425 -0.160128,-0.080064c-0.104609,-0.043331 -0.160128,-0.160128 -0.160128,-0.240192c0,0 -0.049425,-0.086158 -0.080064,-0.160128c-0.04333,-0.104609 -0.049425,-0.166223 -0.080064,-0.240192c-0.043331,-0.104609 -0.05552,-0.196862 -0.160128,-0.240192c-0.073969,-0.030639 -0.055519,-0.116797 -0.160128,-0.160128c-0.073969,-0.030639 -0.160128,-0.160128 -0.160128,-0.160128c-0.160128,0 -0.160128,0 -0.240192,0c-0.080064,0 -0.086158,0.030639 -0.160128,0c-0.104609,-0.04333 -0.160128,-0.160128 -0.240192,-0.160128c0,0 -0.065953,-0.118996 -0.240192,-0.160129c-0.077922,-0.018395 -0.080064,0 -0.160128,0c-0.080064,0 -0.196862,0.024545 -0.240192,-0.080064c-0.030639,-0.073969 -0.080064,-0.160128 -0.080064,-0.240192c0,0 -0.061669,-0.002142 -0.080064,-0.080064c-0.041132,-0.174239 -0.160128,-0.240192 -0.160128,-0.40032c0,-0.160128 0,-0.160128 0,-0.320256c0,-0.160128 0,-0.240192 0,-0.400321c0,-0.080064 0,-0.080064 0.080064,-0.080064c0.080064,0 0.160128,0 0.240192,0c0.080064,0 0.160128,0 0.320256,0c0,0 0.080064,0 0.160128,0c0.080064,0 0.160128,0 0.080064,0c-0.160128,0 -0.240192,0 -0.240192,0c-0.240192,0 -0.320256,0 -0.480384,0c-0.160128,0 -0.240192,0 -0.40032,0c-0.080064,0 -0.080064,0 -0.160128,0c-0.080064,0 -0.160128,0.080064 -0.240192,0.160128c0,0 -0.173986,0.068273 -0.240192,0.160128c-0.10468,0.145236 -0.080064,0.240192 -0.080064,0.320256c0,0 -0.05552,0.203458 -0.160128,0.160128c-0.073969,-0.030639 0.068211,-0.178411 0.160128,-0.40032c0.173321,-0.418435 0.248029,-0.386263 0.40032,-0.480384c0.136213,-0.084184 0.240192,-0.080064 0.240192,-0.080064c0.080064,0 0.160128,0 0.240192,0c0.080064,0 0.328094,-0.066007 0.480384,-0.160128c0.068106,-0.042092 0.160128,0 0.320256,0c0.080064,0 0.240192,0 0.240192,0c0.080064,0 0.160128,0 0.240192,0l0.080064,0.080064" id="svg_27" stroke-width="1.5" stroke="#470000" fill="none"/>
  <path d="m21.487585,5.42274c0,0.080064 0.073633,0.190265 -0.240192,0.320256c-0.073969,0.030639 -0.080063,0.080064 -0.160128,0.080064l-0.080063,0" id="svg_28" stroke-width="1.5" stroke="#470000" fill="none"/>
  <path d="m18.445152,6.143317c-0.160128,0 -0.240192,0.160128 -0.40032,0.160128c-0.080063,0 -0.240192,0.080064 -0.320255,0.080064c-0.080065,0 -0.240192,0 -0.320257,0c0,0 -0.080063,0 -0.080063,0l-0.080065,0l-0.080063,0.080064" id="svg_29" stroke-width="1.5" stroke="#470000" fill="none"/>
  <path d="m20.686945,9.906326c-0.080063,0 -0.16227,-0.018395 -0.240192,0c-0.174238,0.041132 -0.240191,0.240191 -0.240191,0.240191c-0.240192,0 -0.326067,0.03732 -0.480385,0.080064c-0.449909,0.124618 -0.566729,0.223367 -0.80064,0.320256c-0.1654,0.068511 -0.240192,0.160129 -0.320257,0.160129l-0.080063,0" id="svg_30" stroke-width="1.5" stroke="#470000" fill="none"/>
 </g>
</svg>