<svg width="24" height="24" xmlns="http://www.w3.org/2000/svg">

 <g>
  <title>background</title>
  <rect fill="none" id="canvas_background" height="402" width="582" y="-1" x="-1"/>
 </g>
 <g>
  <title>Layer 1</title>
  <g id="surface1">
   <path id="svg_1" fill-rule="nonzero" fill="rgb(29.803922%,68.627451%,31.372549%)" d="m9.648438,3.441406c-2.097657,-2.097656 -6.199219,-2.339844 -9.105469,-2.339844c-0.300781,0 -0.542969,0.246094 -0.542969,0.546876c0,2.902343 0.242188,7.007812 2.339844,9.101562c0.984375,0.878906 2.269531,1.335938 3.585937,1.28125c1.355469,0.054688 2.683594,-0.402344 3.722657,-1.28125c1.5625,-1.5625 1.847656,-5.460938 0,-7.308594zm0,0"/>
   <path id="svg_2" fill-rule="nonzero" fill="rgb(29.803922%,68.627451%,31.372549%)" d="m23.453125,3.257812c-2.902344,0 -7.007813,0.242188 -9.101563,2.339844c-1.855468,1.851563 -1.5625,5.746094 0,7.308594c1.035157,0.875 2.363282,1.332031 3.722657,1.28125c1.316406,0.054688 2.601562,-0.40625 3.585937,-1.28125c2.097656,-2.097656 2.339844,-6.199219 2.339844,-9.105469c-0.003906,-0.300781 -0.246094,-0.542969 -0.546875,-0.542969zm0,0"/>
   <path id="svg_3" fill-rule="nonzero" fill="rgb(21.960784%,55.686275%,23.529412%)" d="m11.441406,22.898438c-0.300781,0 -0.542968,-0.246094 -0.542968,-0.546876c0,-11.554687 -4.238282,-14.457031 -5.835938,-15.546874c-0.191406,-0.121094 -0.375,-0.261719 -0.542969,-0.414063c-0.210937,-0.214844 -0.203125,-0.558594 0.011719,-0.769531c0.210938,-0.203125 0.546875,-0.203125 0.757812,0c0.125,0.105468 0.253907,0.199218 0.390626,0.285156c1.417968,0.96875 4.753906,3.25 5.90625,10.742188c0.894531,-3.917969 3.535156,-7.203126 7.171874,-8.914063c0.277344,-0.132813 0.609376,-0.027344 0.761719,0.238281c0.136719,0.246094 0.050781,0.554688 -0.191406,0.691406c-0.007813,0.003907 -0.019531,0.011719 -0.027344,0.015626l-0.089843,0.039062c-5.972657,2.808594 -7.226563,8.964844 -7.226563,13.632812c0,0.300782 -0.242187,0.542969 -0.542969,0.546876zm0,0"/>
   <path id="svg_4" fill-rule="nonzero" fill="rgb(0%,0%,0%)" d="m5.910156,12.023438c-1.460937,0 -2.757812,-0.457032 -3.570312,-1.273438c-2.097656,-2.097656 -2.339844,-6.199219 -2.339844,-9.101562c0,-0.300782 0.242188,-0.546876 0.542969,-0.546876c2.90625,0 7.007812,0.242188 9.105469,2.339844c1.847656,1.847656 1.5625,5.746094 0,7.308594c-0.75,0.75 -2.066407,1.226562 -3.523438,1.269531c-0.074219,0.003907 -0.144531,0.003907 -0.214844,0.003907zm-4.816406,-9.828126c0.03125,2.65625 0.324219,6.09375 2.015625,7.785157c0.644531,0.640625 1.730469,0.980469 2.984375,0.953125c1.148438,-0.035156 2.242188,-0.410156 2.785156,-0.953125c1.164063,-1.164063 1.363282,-4.402344 0,-5.769531c-1.691406,-1.691407 -5.132812,-1.984376 -7.785156,-2.015626zm0,0"/>
   <path id="svg_5" fill-rule="nonzero" fill="rgb(0%,0%,0%)" d="m18.085938,14.179688c-0.070313,0 -0.140626,0 -0.210938,-0.003907c-1.457031,-0.039062 -2.773438,-0.515625 -3.523438,-1.269531c-1.5625,-1.5625 -1.847656,-5.460938 0,-7.308594c2.097657,-2.097656 6.199219,-2.339844 9.105469,-2.339844c0.300781,0 0.542969,0.246094 0.542969,0.546876c0,2.902343 -0.242188,7.003906 -2.339844,9.101562c-0.816406,0.816406 -2.109375,1.273438 -3.574218,1.273438zm4.820312,-9.828126c-2.65625,0.03125 -6.09375,0.324219 -7.785156,2.015626c-1.363282,1.367187 -1.164063,4.605468 0,5.769531c0.542968,0.542969 1.636718,0.917969 2.785156,0.953125c1.246094,0.046875 2.339844,-0.3125 2.984375,-0.953125c1.6875,-1.691407 1.984375,-5.132813 2.015625,-7.785157zm0,0"/>
   <path id="svg_6" fill-rule="nonzero" fill="rgb(0%,0%,0%)" d="m11.441406,22.898438c-0.300781,0 -0.542968,-0.246094 -0.542968,-0.546876c0,-11.554687 -4.238282,-14.457031 -5.835938,-15.546874c-0.25,-0.171876 -0.4375,-0.304688 -0.542969,-0.414063c-0.210937,-0.210937 -0.210937,-0.554687 0,-0.769531c0.210938,-0.210938 0.558594,-0.210938 0.769531,0c0.074219,0.074218 0.214844,0.164062 0.390626,0.285156c1.414062,0.96875 4.753906,3.25 5.90625,10.742188c0.933593,-3.523438 2.988281,-6.949219 7.164062,-8.914063c0.269531,-0.128906 0.640625,-0.03125 0.769531,0.238281c0.128907,0.273438 0.054688,0.578125 -0.214843,0.707032l-0.089844,0.042968c-5.972656,2.804688 -7.226563,8.960938 -7.226563,13.632813c0,0.296875 -0.246093,0.542969 -0.546875,0.542969zm0,0"/>
  </g>
 </g>
</svg>